<svg width="30" height="30" viewBox="0 0 30 30" xmlns="http://www.w3.org/2000/svg">
<path fill-rule="evenodd" clip-rule="evenodd" d="M5 5H30V30H5V5ZM20.6464 15.6738C21.0114 15.3094 21.0114 14.7181 20.6464 14.3537C20.282 13.9893 19.6907 13.9893 19.327 14.3537L14.3542 19.3264C13.9899 19.6908 13.9899 20.2821 14.3542 20.6465C14.7186 21.0108 15.3099 21.0108 15.6743 20.6465L20.6464 15.6738ZM12.2798 22.7203C13.0123 23.4522 14.203 23.4522 14.9349 22.7203L18.455 19.1964C18.7419 20.379 18.4238 21.6784 17.5006 22.6015L16.1587 23.9441C14.7499 25.3529 12.4654 25.3529 11.0566 23.9441C9.6478 22.5353 9.6478 20.2508 11.0566 18.842L12.3985 17.5001C13.3223 16.5763 14.6218 16.2582 15.8043 16.545L12.2798 20.0652C11.5479 20.7971 11.5479 21.9884 12.2798 22.7203ZM17.5006 12.3986L18.8419 11.0561C20.2507 9.64788 22.5352 9.64788 23.9434 11.0567C25.3522 12.4661 25.3522 14.75 23.9434 16.1588L22.6021 17.5007C21.6789 18.4239 20.382 18.7439 19.1988 18.457L22.7208 14.935C23.4534 14.2031 23.4534 13.0118 22.7208 12.2799C21.9889 11.548 20.7983 11.548 20.0657 12.2799L16.5443 15.8019C16.2568 14.6193 16.5768 13.3224 17.5006 12.3986Z"/>
<path d="M0 0V26.25H2.5V2.5H26.25V0H0Z"/>
</svg>
