<svg width="30" height="30" viewBox="0 0 30 30" xmlns="http://www.w3.org/2000/svg">
<path d="M29.9407 4.38627C30.0138 3.45695 29.9987 1.02487 29.9987 0.0802999C29.9987 0.0802999 24.188 0.060608 23.2579 0.02313C21.3799 -0.0530963 19.4754 0.0837936 17.6067 0.0802999C16.2798 0.077759 14.9735 0.11746 13.6318 0.0802999C12.7838 0.0564791 0.0187779 0.195592 0.0187779 0.195592C-0.00495694 1.0182 0.103774 10.7197 0.0242306 12.7254C-0.0633317 14.9344 0.117245 23.3041 0.0822846 25.2104C0.0623987 26.3004 0.193582 28.2776 0.0563046 29.4309L0.0822846 29.9359C4.37444 29.9359 9.97055 30.0239 14.3512 29.9937C14.3326 28.2888 14.4167 25.4012 14.3422 23.1529C14.3269 22.6911 14.3111 17.8272 14.2569 17.5712C14.2569 17.5712 12.1821 17.5855 11.2359 17.5909C11.2359 17.5909 11.1724 15.7958 11.1724 15.1891C11.1724 14.5927 11.1724 13.9968 11.1724 13.4004C11.1724 13.4004 13.5856 13.2708 14.264 13.212C14.264 13.212 14.3586 10.9354 14.4529 10.1976C14.5607 9.35496 14.5841 8.50376 15.0841 7.7577C15.9995 6.39357 16.9091 5.1911 18.5924 4.82807C19.2287 4.69086 23.4301 3.87333 23.5863 4.54539L23.492 8.59428C22.3502 8.59428 20.9832 8.47899 19.8183 9.33654C19.1694 9.81454 18.9914 10.2128 18.9253 10.998C18.8868 11.4553 18.8775 13.3057 18.8775 13.3057C19.4927 13.393 20.4033 13.3546 21.0643 13.3057C21.8117 13.2508 23.7291 13.447 23.7291 13.447C23.7291 14.6714 23.6797 17.4997 23.6841 17.6201C22.9205 17.6077 22.2225 17.63 21.335 17.5919C21.191 17.5852 18.8798 17.6195 18.8865 17.6608C19.0543 18.679 18.8131 19.7602 18.8275 20.7895C18.8358 21.3895 19.0142 27.9508 18.9324 29.9518C19.9543 29.9432 20.9793 29.9359 22.0221 29.9359C23.2521 29.9359 28.7286 29.9365 29.9538 29.9359C29.9538 29.9359 29.7495 6.82361 29.9407 4.38627Z"/>
</svg>
