<svg width="30" height="30" viewBox="0 0 30 30" xmlns="http://www.w3.org/2000/svg">
<path d="M29.9197 12.3935C29.9159 10.5249 30.0531 8.62034 29.9769 6.74209C29.9397 5.81226 29.9197 0.0012847 29.9197 0.0012847C28.9749 0.0012847 26.5428 -0.0137902 25.6138 0.0593385C23.1765 0.25082 0.0648267 0.0468297 0.0648267 0.0468297C0.0638739 1.27173 0.0648267 6.7485 0.0648267 7.97854C0.0648267 10.5451 0.0260788 13.0109 0.00702243 15.5586C-0.0253734 19.9678 0.0648267 25.5959 0.0648267 29.9176L0.569502 29.9436C1.72273 29.8063 3.69996 29.9375 4.78999 29.9176C6.69626 29.8826 15.0658 30.0635 17.2751 29.9756C19.2801 29.8961 28.9822 30.0052 29.8044 29.9811C29.8044 29.9811 29.9436 17.2162 29.9201 16.3684C29.8826 15.0268 29.9223 13.7204 29.9197 12.3935ZM24.4733 20.9175C23.7574 21.3701 20.8475 21.5048 20.1427 20.9877C19.7565 20.7042 19.4037 20.3495 19.0676 20.0121C18.8329 19.776 18.5665 19.6615 18.3651 19.4052C18.1999 19.1954 18.0875 18.9482 17.9138 18.7416C17.6213 18.3942 17.1709 18.0988 16.8142 18.5232C16.2781 19.1611 16.899 20.4152 16.1831 20.8918C15.9434 21.0519 15.701 21.0981 15.4012 21.0753L14.7371 21.1061C14.3471 21.1138 13.7287 21.1173 13.285 21.0362C12.7902 20.946 12.3811 20.6731 11.9336 20.4723C11.0837 20.0916 10.2738 19.5733 9.65825 18.8548C7.98161 16.8983 5.72915 14.2073 4.85414 11.7472C4.6747 11.2417 4.19924 10.2417 4.6496 9.8074C5.26227 9.35804 8.26999 9.23103 8.73942 9.92639C8.92998 10.2086 9.05035 10.6227 9.1847 10.9428C9.35239 11.3421 9.44323 11.7184 9.70589 12.0721C9.93838 12.3855 10.1096 12.7008 10.2896 13.0446C10.491 13.4302 10.6816 13.8003 10.9268 14.1557C11.0932 14.3972 11.5334 14.8773 11.8113 14.9133C12.4903 15.0008 12.4481 13.3346 12.3979 12.9279C12.3496 12.5359 12.3373 12.1199 12.35 11.7225C12.3608 11.3835 12.3912 10.9056 12.1924 10.6285C11.8682 10.1769 11.1459 10.5149 11.0894 9.90811C11.2091 9.73555 11.1834 9.58288 11.9803 9.31795C12.6075 9.10947 13.0128 9.1162 13.4266 9.14956C14.2699 9.21788 15.1646 8.98726 15.978 9.26342C16.7558 9.52803 16.6354 10.6439 16.6097 11.3129C16.5748 12.2264 16.6119 13.1171 16.6097 14.044C16.6087 14.4661 16.5916 14.8767 17.1013 14.8424C17.579 14.81 17.6276 14.4046 17.8557 14.0694C18.1729 13.6024 18.4639 13.1293 18.7866 12.6639C19.222 12.0353 19.3535 11.3287 19.7626 10.6846C19.9093 10.454 20.0351 9.95045 20.2609 9.76859C20.4314 9.63067 20.7567 9.68968 20.9631 9.68968H21.4548C21.8311 9.69417 22.2148 9.69963 22.6013 9.71342C23.1584 9.73298 23.7822 9.61078 24.3345 9.68936C26.7172 10.029 21.3392 15.1763 21.6193 16.0945C21.8127 16.729 23.0393 17.4391 23.482 17.959C24.0715 18.6502 25.8806 20.0278 24.4733 20.9175Z"/>
</svg>
